<mxfile host="Electron" modified="2024-01-25T19:06:49.406Z" agent="Mozilla/5.0 (Windows NT 10.0; Win64; x64) AppleWebKit/537.36 (KHTML, like Gecko) draw.io/22.1.21 Chrome/120.0.6099.109 Electron/28.1.0 Safari/537.36" etag="H83yb37QevKYqQ843zUy" version="22.1.21" type="device">
  <diagram name="Page-1" id="uLG438TwR9v9m4hu1k_A">
    <mxGraphModel dx="864" dy="516" grid="1" gridSize="10" guides="1" tooltips="1" connect="1" arrows="1" fold="1" page="1" pageScale="1" pageWidth="850" pageHeight="1100" math="0" shadow="0">
      <root>
        <mxCell id="0" />
        <mxCell id="1" parent="0" />
        <mxCell id="mFp79cDv7B2YGgpA_-KP-6" style="edgeStyle=orthogonalEdgeStyle;rounded=0;orthogonalLoop=1;jettySize=auto;html=1;exitX=0.5;exitY=1;exitDx=0;exitDy=0;entryX=0.5;entryY=0;entryDx=0;entryDy=0;" edge="1" parent="1" source="mFp79cDv7B2YGgpA_-KP-1" target="mFp79cDv7B2YGgpA_-KP-2">
          <mxGeometry relative="1" as="geometry" />
        </mxCell>
        <mxCell id="mFp79cDv7B2YGgpA_-KP-1" value="&lt;font style=&quot;font-size: 20px;&quot;&gt;start&lt;/font&gt;" style="rounded=1;whiteSpace=wrap;html=1;fontSize=12;glass=0;strokeWidth=1;shadow=0;arcSize=50;fillColor=#dae8fc;strokeColor=#6c8ebf;" vertex="1" parent="1">
          <mxGeometry x="365" y="130" width="120" height="40" as="geometry" />
        </mxCell>
        <mxCell id="mFp79cDv7B2YGgpA_-KP-7" style="edgeStyle=orthogonalEdgeStyle;rounded=0;orthogonalLoop=1;jettySize=auto;html=1;exitX=0.5;exitY=1;exitDx=0;exitDy=0;entryX=0.5;entryY=0;entryDx=0;entryDy=0;" edge="1" parent="1" source="mFp79cDv7B2YGgpA_-KP-2" target="mFp79cDv7B2YGgpA_-KP-3">
          <mxGeometry relative="1" as="geometry" />
        </mxCell>
        <mxCell id="mFp79cDv7B2YGgpA_-KP-2" value="&lt;font style=&quot;font-size: 20px;&quot;&gt;read Num&lt;/font&gt;" style="shape=parallelogram;perimeter=parallelogramPerimeter;whiteSpace=wrap;html=1;fixedSize=1;fillColor=#d5e8d4;strokeColor=#82b366;" vertex="1" parent="1">
          <mxGeometry x="320" y="220" width="210" height="60" as="geometry" />
        </mxCell>
        <mxCell id="mFp79cDv7B2YGgpA_-KP-8" style="edgeStyle=orthogonalEdgeStyle;rounded=0;orthogonalLoop=1;jettySize=auto;html=1;exitX=0.5;exitY=1;exitDx=0;exitDy=0;entryX=0.5;entryY=0;entryDx=0;entryDy=0;" edge="1" parent="1" source="mFp79cDv7B2YGgpA_-KP-3" target="mFp79cDv7B2YGgpA_-KP-4">
          <mxGeometry relative="1" as="geometry" />
        </mxCell>
        <mxCell id="mFp79cDv7B2YGgpA_-KP-3" value="&lt;h3&gt;&lt;font style=&quot;font-size: 20px;&quot;&gt;hlfeNumn= Num / 2&lt;/font&gt;&lt;/h3&gt;" style="rounded=0;whiteSpace=wrap;html=1;fillColor=#e1d5e7;strokeColor=#9673a6;" vertex="1" parent="1">
          <mxGeometry x="267" y="330" width="316" height="60" as="geometry" />
        </mxCell>
        <mxCell id="mFp79cDv7B2YGgpA_-KP-9" style="edgeStyle=orthogonalEdgeStyle;rounded=0;orthogonalLoop=1;jettySize=auto;html=1;exitX=0.5;exitY=1;exitDx=0;exitDy=0;entryX=0.5;entryY=0;entryDx=0;entryDy=0;" edge="1" parent="1" source="mFp79cDv7B2YGgpA_-KP-4" target="mFp79cDv7B2YGgpA_-KP-5">
          <mxGeometry relative="1" as="geometry" />
        </mxCell>
        <mxCell id="mFp79cDv7B2YGgpA_-KP-4" value="&lt;font style=&quot;font-size: 20px;&quot;&gt;print &quot;the hlfe of&quot;+&amp;nbsp; Num +&quot;is: &quot; +&amp;nbsp; hlfeNem&lt;/font&gt;" style="shape=parallelogram;perimeter=parallelogramPerimeter;whiteSpace=wrap;html=1;fixedSize=1;fillColor=#d5e8d4;strokeColor=#82b366;" vertex="1" parent="1">
          <mxGeometry x="165" y="440" width="520" height="60" as="geometry" />
        </mxCell>
        <mxCell id="mFp79cDv7B2YGgpA_-KP-5" value="&lt;font style=&quot;font-size: 21px;&quot;&gt;end&lt;/font&gt;" style="rounded=1;whiteSpace=wrap;html=1;arcSize=50;fillColor=#dae8fc;strokeColor=#6c8ebf;" vertex="1" parent="1">
          <mxGeometry x="365" y="550" width="120" height="40" as="geometry" />
        </mxCell>
      </root>
    </mxGraphModel>
  </diagram>
</mxfile>
